<?xml version="1.0" encoding="utf-8"?>
<!-- Generator: Adobe Illustrator 19.1.0, SVG Export Plug-In . SVG Version: 6.00 Build 0)  -->
<svg version="1.1" id="Layer_1" xmlns="http://www.w3.org/2000/svg" xmlns:xlink="http://www.w3.org/1999/xlink" x="0px" y="0px"
	 viewBox="38.4 6.9 219.7 40.5" style="enable-background:new 38.4 6.9 219.7 40.5;" xml:space="preserve">
<style type="text/css">
	.st0{fill:#010101;}
	.st1{fill:#FFFFFF;}
	.st2{fill:none;}
</style>
<g>
	<g id="Layer_2_1_">
		<polygon class="st0" points="61.4,8.6 38.9,45.9 46.7,45.9 50.6,38.6 72.1,38.6 76.8,45.9 84.6,45.9 		"/>
		<polygon class="st1" points="61.4,20.6 54.2,32.7 68.7,32.7 		"/>
		<polygon class="st0" points="93.7,8.6 93.7,45.9 130.4,45.9 130.4,45.7 130.4,40.2 99.3,40.2 99.3,8.6 		"/>
		<polygon class="st0" points="124.9,8.6 124.9,14.7 140.7,14.7 140.7,45.9 146.4,45.9 146.4,14.6 161.9,14.6 161.9,8.6 		"/>
		<polygon class="st0" points="172.1,8.6 172.1,45.9 209,45.9 209,8.6 203.1,8.6 203.1,39.6 177.8,39.6 177.8,8.6 		"/>
		<polygon class="st0" points="219.1,8.6 219.1,30.3 249.8,30.3 249.8,39.8 219.1,39.8 219.1,45.9 256,45.9 256,24.3 224.7,24.3 
			224.7,14.3 256,14.3 256,8.6 		"/>
		<polyline id="_x3C_Slice_x3E__1_" class="st2" points="38.4,6.9 258.2,6.9 258.2,47.4 38.4,47.4 38.4,6.9 		"/>
	</g>
</g>
</svg>
