<?xml version="1.0" encoding="utf-8"?>
<!-- Generator: Adobe Illustrator 19.1.0, SVG Export Plug-In . SVG Version: 6.00 Build 0)  -->
<svg version="1.1" id="Layer_1" xmlns="http://www.w3.org/2000/svg" xmlns:xlink="http://www.w3.org/1999/xlink" x="0px" y="0px"
	 viewBox="0 0 295 55" enable-background="new 0 0 295 55" xml:space="preserve">
<g>
	<g id="Layer_2_1_">
		<polygon fill="#010101" points="32.5,2.3 2.4,52.1 12.8,52.1 18.1,42.3 46.7,42.3 53,52.1 63.4,52.1 		"/>
		<polygon fill="#FFFFFF" points="32.4,18.3 22.9,34.4 42.2,34.4 		"/>
		<polygon fill="#010101" points="75.5,2.3 75.5,52.1 124.5,52.1 124.5,51.8 124.5,44.4 83,44.4 83,2.3 		"/>
		<polygon fill="#010101" points="117.1,2.3 117.1,10.4 138.2,10.4 138.2,52.1 145.8,52.1 145.8,10.3 166.5,10.3 166.5,2.3 		"/>
		<polygon fill="#010101" points="180.1,2.3 180.1,52.1 229.3,52.1 229.3,2.3 221.4,2.3 221.4,43.6 187.6,43.6 187.6,2.3 		"/>
		<polygon fill="#010101" points="242.7,2.3 242.7,31.2 283.7,31.2 283.7,43.9 242.7,43.9 242.7,52.1 291.9,52.1 291.9,23.3 
			250.2,23.3 250.2,9.9 291.9,9.9 291.9,2.3 		"/>
		<rect id="_x3C_Slice_x3E__1_" x="1.8" y="0" fill="none" width="293" height="54"/>
	</g>
</g>
</svg>
